#N canvas 968 1088 944 1064 12;
#X obj 40 420 pulsar~;
#X obj 416 717 dac~;
#X obj 30 36 import mrpeach;
#X obj 30 60 table realVals;
#X obj 450 420 pulsar~;
#X obj 30 84 table imaginaryVals;
#X obj 495 285 r pan;
#X obj 494 183 tgl 20 0 measureOn empty Measurements 22 7 0 10 #fcfcfc
#000000 #000000 1 1;
#N canvas 8 561 944 510 receiveOSC 1;
#X obj 190 50 udpreceive 16447;
#X obj 190 80 unpackOSC;
#X obj 192 192 list prepend;
#X obj 232 252 tabset realVals;
#X msg 192 252 1024;
#X obj 190 310 until;
#X obj 200 380 / 4;
#X obj 200 410 tabread4 realVals;
#X obj 192 162 routeOSC /secondHalf /firstHalf;
#X obj 200 350 f;
#X obj 230 350 + 1;
#X msg 240 310 0;
#X obj 420 190 list prepend;
#X msg 420 250 1024;
#X obj 420 160 routeOSC /secondHalf /firstHalf;
#X obj 430 410 tabread4 imaginaryVals;
#X obj 460 250 tabset imaginaryVals;
#X obj 190 110 routeOSC /realValues /imaginaryValues /measurement;
#X obj 670 160 spigot;
#X obj 700 130 r measureOn;
#X obj 670 230 s pan;
#X obj 200 440 outlet;
#X obj 430 440 outlet;
#X obj 192 282 t f b;
#X obj 420 220 t b l;
#X obj 192 222 t b l;
#X obj 418 308 until;
#X obj 430 380 / 4;
#X obj 430 350 f;
#X obj 460 350 + 1;
#X msg 478 308 0;
#X obj 418 278 t f b;
#X obj 670 190 / 2;
#X connect 0 0 1 0;
#X connect 1 0 17 0;
#X connect 2 0 25 0;
#X connect 4 0 23 0;
#X connect 5 0 9 0;
#X connect 6 0 7 0;
#X connect 7 0 21 0;
#X connect 8 0 2 0;
#X connect 8 1 2 1;
#X connect 9 0 10 0;
#X connect 9 0 6 0;
#X connect 10 0 9 1;
#X connect 11 0 9 1;
#X connect 12 0 24 0;
#X connect 13 0 31 0;
#X connect 14 0 12 0;
#X connect 14 1 12 1;
#X connect 15 0 22 0;
#X connect 17 0 8 0;
#X connect 17 1 14 0;
#X connect 17 2 18 0;
#X connect 18 0 32 0;
#X connect 19 0 18 1;
#X connect 23 0 5 0;
#X connect 23 1 11 0;
#X connect 24 0 13 0;
#X connect 24 1 16 0;
#X connect 25 0 4 0;
#X connect 25 1 3 0;
#X connect 26 0 28 0;
#X connect 27 0 15 0;
#X connect 28 0 29 0;
#X connect 28 0 27 0;
#X connect 29 0 28 1;
#X connect 30 0 28 1;
#X connect 31 0 26 0;
#X connect 31 1 30 0;
#X connect 32 0 20 0;
#X restore 494 213 pd receiveOSC;
#N canvas 904 548 1008 524 alternate 0;
#X obj 350 130 inlet;
#X obj 260 460 outlet;
#X obj 310 460 outlet;
#X obj 388 379 route 0 1;
#X obj 388 349 pack;
#X obj 370 320 + 1;
#X obj 328 319 f 0;
#X obj 370 290 % 2;
#X obj 372 212 t b f;
#X obj 230 66 tgl 15 0 empty empty empty 17 7 0 10 #fcfcfc #000000
#000000 1 1;
#X obj 370 180 spigot;
#X obj 290 210 spigot;
#X obj 240 150 + 1;
#X obj 240 180 mod 2;
#X connect 0 0 10 0;
#X connect 0 0 11 0;
#X connect 3 0 1 0;
#X connect 3 1 2 0;
#X connect 4 0 3 0;
#X connect 5 0 7 0;
#X connect 6 0 5 0;
#X connect 6 0 4 0;
#X connect 7 0 6 1;
#X connect 8 0 6 0;
#X connect 8 1 4 1;
#X connect 9 0 10 1;
#X connect 9 0 12 0;
#X connect 10 0 8 0;
#X connect 11 0 1 0;
#X connect 11 0 2 0;
#X connect 12 0 13 0;
#X connect 13 0 11 1;
#X coords 0 -1 1 1 84 36 1 227 46;
#X restore 495 325 pd alternate;
#X obj 30 110 loadbang;
#X msg 30 140 \; realVals resize 259 \; imaginaryVals resize 259;
#N canvas 968 8 944 1039 midi 0;
#X obj 69 146 pack;
#X obj 70 60 ctlin;
#X text 70 38 other;
#X obj 70 170 route 8 9 10 11 12 13 14 15;
#X obj 70 470 outlet;
#X obj 70 210 / 127;
#X obj 70 370 * 1;
#X floatatom 80 260 4 0 0 0 - - -, f 4;
#X obj 123 210 / 127;
#X obj 120 370 * 1;
#X floatatom 133 260 4 0 0 0 - - -, f 4;
#X obj 172 210 / 127;
#X obj 169 370 * 1;
#X floatatom 182 260 4 0 0 0 - - -, f 4;
#X obj 222 210 / 127;
#X obj 219 370 * 1;
#X floatatom 232 260 4 0 0 0 - - -, f 4;
#X obj 271 210 / 127;
#X obj 268 370 * 1;
#X floatatom 281 260 4 0 0 0 - - -, f 4;
#X obj 322 210 / 127;
#X obj 319 370 * 1;
#X floatatom 332 260 4 0 0 0 - - -, f 4;
#X obj 372 210 / 127;
#X obj 369 370 * 1;
#X floatatom 382 260 4 0 0 0 - - -, f 4;
#X obj 422 210 / 127;
#X obj 419 370 * 1;
#X floatatom 432 260 4 0 0 0 - - -, f 4;
#X obj 70 440 line;
#X obj 70 410 pack 1 100;
#X obj 70 120 f;
#X obj 40 90 bang;
#X obj 150 470 outlet;
#X obj 150 440 line;
#X obj 150 410 pack 1 100;
#X obj 230 470 outlet;
#X obj 230 440 line;
#X obj 230 410 pack 1 100;
#X obj 310 470 outlet;
#X obj 310 440 line;
#X obj 310 410 pack 1 100;
#X obj 390 470 outlet;
#X obj 390 440 line;
#X obj 390 410 pack 1 100;
#X obj 470 470 outlet;
#X obj 470 440 line;
#X obj 470 410 pack 1 100;
#X obj 550 470 outlet;
#X obj 550 440 line;
#X obj 550 410 pack 1 100;
#X obj 630 470 outlet;
#X obj 630 440 line;
#X obj 630 410 pack 1 100;
#X connect 0 0 3 0;
#X connect 1 0 0 1;
#X connect 1 0 32 0;
#X connect 1 1 31 1;
#X connect 3 0 5 0;
#X connect 3 1 8 0;
#X connect 3 2 11 0;
#X connect 3 3 14 0;
#X connect 3 4 17 0;
#X connect 3 5 20 0;
#X connect 3 6 23 0;
#X connect 3 7 26 0;
#X connect 5 0 6 0;
#X connect 6 0 30 0;
#X connect 7 0 6 1;
#X connect 8 0 9 0;
#X connect 9 0 35 0;
#X connect 10 0 9 1;
#X connect 11 0 12 0;
#X connect 12 0 38 0;
#X connect 13 0 12 1;
#X connect 14 0 15 0;
#X connect 15 0 41 0;
#X connect 16 0 15 1;
#X connect 17 0 18 0;
#X connect 18 0 44 0;
#X connect 19 0 18 1;
#X connect 20 0 21 0;
#X connect 21 0 47 0;
#X connect 22 0 21 1;
#X connect 23 0 24 0;
#X connect 24 0 50 0;
#X connect 25 0 24 1;
#X connect 26 0 27 0;
#X connect 27 0 53 0;
#X connect 28 0 27 1;
#X connect 29 0 4 0;
#X connect 30 0 29 0;
#X connect 31 0 0 0;
#X connect 32 0 31 0;
#X connect 34 0 33 0;
#X connect 35 0 34 0;
#X connect 37 0 36 0;
#X connect 38 0 37 0;
#X connect 40 0 39 0;
#X connect 41 0 40 0;
#X connect 43 0 42 0;
#X connect 44 0 43 0;
#X connect 46 0 45 0;
#X connect 47 0 46 0;
#X connect 49 0 48 0;
#X connect 50 0 49 0;
#X connect 52 0 51 0;
#X connect 53 0 52 0;
#X coords 0 -1 1 1 388 46 1 76 238;
#X restore 39 230 pd midi;
#X connect 0 0 1 0;
#X connect 0 1 1 1;
#X connect 4 0 1 0;
#X connect 4 1 1 1;
#X connect 6 0 9 0;
#X connect 8 0 0 4;
#X connect 8 1 4 4;
#X connect 9 0 0 5;
#X connect 9 1 4 5;
#X connect 10 0 11 0;
#X connect 12 0 0 0;
#X connect 12 1 0 1;
#X connect 12 2 4 0;
#X connect 12 3 4 1;
