#N canvas 648 8 1264 524 12;
#X obj 40 420 pulsar~;
#X obj 420 840 dac~;
#X obj 30 36 import mrpeach;
#X obj 30 60 table realVals;
#X obj 450 420 pulsar~;
#X obj 30 84 table imaginaryVals;
#X obj 290 710 hsl 128 15 0.01 1 1 0 empty empty empty -2 -8 0 10 #fcfcfc
#000000 #000000 12700 1;
#X obj 410 810 *~;
#X obj 450 810 *~;
#X obj 430 320 r pan;
#X obj 370 170 tgl 20 0 measureOn empty Measurements 22 7 0 10 #fcfcfc
#000000 #000000 0 1;
#X obj 680 250 udpsend;
#X msg 30 150 \; realVals resize 256 \; imaginaryVals resize 256;
#X obj 30 120 loadbang;
#X msg 610 130 connect localhost 16448;
#X obj 860 180 packOSC;
#X msg 790 130 send /measure T 1;
#X obj 790 90 metro;
#X obj 803 16 tgl 15 0 empty empty empty 17 7 0 10 #fcfcfc #000000
#000000 1 1;
#X floatatom 843 56 5 0 0 0 - - -, f 5;
#X msg 200 380 1 0 0 1 0;
#X msg 680 350 0 1 1 0 1;
#X msg 197 354 1;
#X msg 670 320 1;
#N canvas 680 548 1232 499 receiveOSC 0;
#X obj 190 -110 udpreceive 16447;
#X obj 190 -80 unpackOSC;
#X obj 192 32 list prepend;
#X obj 232 92 tabset realVals;
#X msg 192 92 1024;
#X obj 192 152 until;
#X obj 222 242 / 4;
#X obj 122 272 tabread4 realVals;
#X obj 222 212 t f f;
#X obj 242 312 pack;
#X obj 192 2 routeOSC /secondHalf /firstHalf;
#X obj 192 182 f;
#X obj 222 182 + 1;
#X msg 252 152 0;
#X obj 192 122 t f f;
#X obj 602 72 list prepend;
#X msg 602 132 1024;
#X obj 602 192 until;
#X obj 632 282 / 4;
#X obj 632 252 t f f;
#X obj 652 352 pack;
#X obj 602 42 routeOSC /secondHalf /firstHalf;
#X obj 602 222 f;
#X obj 632 222 + 1;
#X msg 652 192 0;
#X obj 602 162 t f f;
#X obj 532 312 tabread4 imaginaryVals;
#X obj 642 132 tabset imaginaryVals;
#X obj 190 -50 routeOSC /realValues /imaginaryValues /measurement;
#X obj 1010 50 spigot;
#X obj 1040 20 r measureOn;
#X obj 1010 120 s pan;
#X obj 192 62 t b b l;
#X msg 352 92 \; realVals normalize 1;
#X obj 602 102 t b b l;
#X msg 792 132 \; imaginaryVals normalize 1;
#X obj 230 380 outlet;
#X obj 650 380 outlet;
#X obj 1010 80 / 5;
#X connect 0 0 1 0;
#X connect 1 0 28 0;
#X connect 2 0 32 0;
#X connect 4 0 14 0;
#X connect 5 0 11 0;
#X connect 6 0 7 0;
#X connect 7 0 9 0;
#X connect 8 0 6 0;
#X connect 8 1 9 1;
#X connect 9 0 36 0;
#X connect 10 0 2 0;
#X connect 10 1 2 1;
#X connect 11 0 12 0;
#X connect 11 0 8 0;
#X connect 12 0 11 1;
#X connect 13 0 11 0;
#X connect 14 0 5 0;
#X connect 14 1 13 0;
#X connect 15 0 34 0;
#X connect 16 0 25 0;
#X connect 17 0 22 0;
#X connect 18 0 26 0;
#X connect 19 0 18 0;
#X connect 19 1 20 1;
#X connect 20 0 37 0;
#X connect 21 0 15 0;
#X connect 21 1 15 1;
#X connect 22 0 23 0;
#X connect 22 0 19 0;
#X connect 23 0 22 1;
#X connect 24 0 22 0;
#X connect 25 0 17 0;
#X connect 25 1 24 0;
#X connect 26 0 20 0;
#X connect 28 0 10 0;
#X connect 28 1 21 0;
#X connect 28 2 29 0;
#X connect 29 0 38 0;
#X connect 30 0 29 1;
#X connect 32 0 4 0;
#X connect 32 1 33 0;
#X connect 32 2 3 0;
#X connect 34 0 16 0;
#X connect 34 1 35 0;
#X connect 34 2 27 0;
#X connect 38 0 31 0;
#X restore 370 210 pd receiveOSC;
#N canvas 680 548 1232 499 alternate 0;
#X obj 350 130 inlet;
#X obj 350 360 outlet;
#X obj 400 360 outlet;
#X obj 362 282 route 0 1;
#X obj 362 252 pack;
#X obj 344 223 + 1;
#X obj 302 222 f 0;
#X obj 344 193 % 2;
#X obj 352 162 t b f;
#X connect 0 0 8 0;
#X connect 3 0 1 0;
#X connect 3 1 2 0;
#X connect 4 0 3 0;
#X connect 5 0 7 0;
#X connect 6 0 5 0;
#X connect 6 0 4 0;
#X connect 7 0 6 1;
#X connect 8 0 6 0;
#X connect 8 1 4 1;
#X restore 430 360 pd alternate;
#X obj 600 660 hsl 128 15 0.01 1 1 0 empty empty empty -2 -8 0 10 #fcfcfc
#000000 #000000 7800 1;
#X obj 622 812 *~;
#X obj 662 812 *~;
#X connect 0 0 7 0;
#X connect 0 1 8 0;
#X connect 4 0 27 0;
#X connect 4 1 28 0;
#X connect 6 0 7 1;
#X connect 6 0 8 1;
#X connect 7 0 1 0;
#X connect 8 0 1 1;
#X connect 9 0 25 0;
#X connect 13 0 12 0;
#X connect 14 0 11 0;
#X connect 15 0 11 0;
#X connect 16 0 15 0;
#X connect 17 0 16 0;
#X connect 18 0 17 0;
#X connect 19 0 17 1;
#X connect 20 0 0 3;
#X connect 21 0 4 3;
#X connect 22 0 0 3;
#X connect 23 0 4 3;
#X connect 24 0 0 4;
#X connect 24 1 4 4;
#X connect 25 0 0 5;
#X connect 25 1 4 5;
#X connect 26 0 27 1;
#X connect 26 0 28 1;
#X connect 27 0 1 0;
#X connect 28 0 1 1;
